<svg width="500" height="500" viewBox="0 0 500 500" fill="none" xmlns="http://www.w3.org/2000/svg">
<path fill-rule="evenodd" clip-rule="evenodd" d="M500 250C500 388.071 388.071 500 250 500C111.929 500 0 388.071 0 250C0 111.929 111.929 0 250 0C388.071 0 500 111.929 500 250ZM430 250C430 349.411 349.411 430 250 430C150.589 430 70 349.411 70 250C70 150.589 150.589 70 250 70C349.411 70 430 150.589 430 250ZM250 340C299.706 340 340 299.706 340 250C340 200.294 299.706 160 250 160C200.294 160 160 200.294 160 250C160 299.706 200.294 340 250 340Z" fill="white"/>
</svg>
